<svg xmlns="http://www.w3.org/2000/svg" version="1.1" xmlns:xlink="http://www.w3.org/1999/xlink" xmlns:svgjs="http://svgjs.dev/svgjs" width="1920" height="1080" preserveAspectRatio="none" viewBox="0 0 1920 1080"><g mask="url(&quot;#SvgjsMask1071&quot;)" fill="none"><rect width="1920" height="1080" x="0" y="0" fill="url(&quot;#SvgjsLinearGradient1072&quot;)"></rect><path d="M893.4451586586969-85.9943478913493L903.7044082483511 109.76379584235995 1089.2033023924062-96.25359748100351z" fill="rgba(0, 123, 255, 1)" class="triangle-float2"></path><path d="M443.571,1055.806C551.317,1056.821,646.006,987.46,697.24,892.669C746.007,802.442,735.202,696.207,686.809,605.779C635.077,509.111,553.174,421.52,443.571,418.659C330.004,415.694,229.96,491.817,177.297,592.479C128.239,686.25,145.312,796.213,198.044,887.968C250.988,980.093,337.321,1054.805,443.571,1055.806" fill="rgba(0, 123, 255, 1)" class="triangle-float2"></path><path d="M-3.940602038177797 430.2246594473052L276.70387824972664 410.6000856512286-23.565175834254386 149.58017915940076z" fill="rgba(0, 123, 255, 1)" class="triangle-float3"></path><path d="M1095.471,509.226C1163.305,511.367,1234.068,486.262,1266.564,426.679C1298.051,368.945,1277.092,298.738,1239.815,244.562C1207.627,197.781,1152.25,178.833,1095.471,178.02C1036.892,177.181,975.479,191.052,943.786,240.324C909.747,293.244,911.203,361.634,942.117,416.438C973.579,472.212,1031.467,507.206,1095.471,509.226" fill="rgba(0, 123, 255, 1)" class="triangle-float1"></path><path d="M596.7108653460947 188.6269725487945L600.6233327098068-35.51813259987955 376.4782275611328-39.43059996359173 372.5657601974207 184.71450518508232z" fill="rgba(0, 123, 255, 1)" class="triangle-float3"></path><path d="M1631.022906704239 880.792330925672L1808.9609579149337 797.8184549689486 1725.9870819582104 619.8804037582538 1548.0490307475154 702.8542797149771z" fill="rgba(0, 123, 255, 1)" class="triangle-float3"></path><path d="M899.1957939846325 515.3541709219638L719.8790806103511 736.7918703870748 941.316780075462 916.1085837613562 1120.6334934497434 694.6708842962453z" fill="rgba(0, 123, 255, 1)" class="triangle-float1"></path><path d="M714.141,1074.593C781.071,1077.483,847.725,1049.729,882.804,992.655C919.475,932.992,918.952,857.884,884.975,796.646C849.945,733.51,786.278,685.59,714.141,688.666C645.965,691.573,597.321,749.179,566.808,810.215C539.826,864.189,539.573,926.394,568.948,979.105C599.171,1033.337,652.114,1071.915,714.141,1074.593" fill="rgba(0, 123, 255, 1)" class="triangle-float3"></path><path d="M43.13037939447736 319.64456102697426L264.0951714831416 159.10424238269715-117.40993924979975 98.67976893831002z" fill="rgba(0, 123, 255, 1)" class="triangle-float3"></path><path d="M1967.243713184592 931.1411246908593L1689.2652224018616 777.0551311408117 1535.179228851814 1055.0336219235423 1813.1577196345445 1209.1196154735899z" fill="rgba(0, 123, 255, 1)" class="triangle-float2"></path><path d="M1528.738,338.138C1606.105,335.853,1673.98,292.652,1714.552,226.737C1757.435,157.067,1774.609,71.837,1737.543,-1.095C1697.05,-80.772,1618.068,-141.759,1528.738,-138.877C1443.099,-136.114,1383.086,-63.545,1342.039,11.667C1303.112,82.994,1282.552,167.766,1322.891,238.304C1363.467,309.256,1447.039,340.551,1528.738,338.138" fill="rgba(0, 123, 255, 1)" class="triangle-float1"></path></g><defs><mask id="SvgjsMask1071"><rect width="1920" height="1080" fill="#ffffff"></rect></mask><linearGradient x1="10.94%" y1="-19.44%" x2="89.06%" y2="119.44%" gradientUnits="userSpaceOnUse" id="SvgjsLinearGradient1072"><stop stop-color="#0e2a47" offset="0"></stop><stop stop-color="#00459e" offset="1"></stop></linearGradient><style>
                @keyframes float1 {
                    0%{transform: translate(0, 0)}
                    50%{transform: translate(-10px, 0)}
                    100%{transform: translate(0, 0)}
                }

                .triangle-float1 {
                    animation: float1 5s infinite;
                }

                @keyframes float2 {
                    0%{transform: translate(0, 0)}
                    50%{transform: translate(-5px, -5px)}
                    100%{transform: translate(0, 0)}
                }

                .triangle-float2 {
                    animation: float2 4s infinite;
                }

                @keyframes float3 {
                    0%{transform: translate(0, 0)}
                    50%{transform: translate(0, -10px)}
                    100%{transform: translate(0, 0)}
                }

                .triangle-float3 {
                    animation: float3 6s infinite;
                }
            </style></defs></svg>
